<svg width="905" height="199" viewBox="0 0 905 199" fill="none" xmlns="http://www.w3.org/2000/svg">
<path d="M36.1198 195.306V162.282H80.2378C88.1498 162.282 94.0838 160.218 98.0398 156.09C101.996 151.962 103.974 146.114 103.974 138.546C103.974 130.978 101.996 125.216 98.0398 121.26C94.0838 117.132 88.1498 115.068 80.2378 115.068H36.1198V89.526H78.1738C91.2458 89.526 102.856 91.16 113.004 94.428C123.152 97.524 131.15 102.598 136.998 109.65C142.846 116.702 145.77 126.248 145.77 138.288V141.9C145.77 153.08 143.19 162.712 138.03 170.796C132.87 178.708 125.302 184.814 115.326 189.114C105.35 193.242 92.9658 195.306 78.1738 195.306H36.1198ZM-0.000249416 195.306V4.12798H41.2798V195.306H-0.000249416ZM36.1198 108.36V83.076H73.2718C81.3558 83.076 87.2038 81.012 90.8158 76.884C94.4278 72.756 96.2338 67.252 96.2338 60.372C96.2338 53.148 94.4278 47.472 90.8158 43.344C87.2038 39.216 81.3558 37.152 73.2718 37.152H36.1198V4.12798H70.6918C92.3638 4.12798 108.962 8.68598 120.486 17.802C132.182 26.918 138.03 39.904 138.03 56.76V60.63C138.03 72.326 135.02 81.7 129 88.752C123.152 95.804 115.154 100.878 105.006 103.974C95.0298 106.898 83.5918 108.36 70.6918 108.36H36.1198ZM251.391 194.016V152.22H244.425V106.812C244.425 99.588 242.705 94.17 239.265 90.558C235.825 86.946 230.321 85.14 222.753 85.14C218.969 85.14 213.981 85.226 207.789 85.398C201.597 85.57 195.233 85.828 188.697 86.172C182.161 86.516 176.227 86.86 170.895 87.204V52.374C174.851 52.03 179.495 51.686 184.827 51.342C190.159 50.998 195.663 50.74 201.339 50.568C207.015 50.396 212.347 50.31 217.335 50.31C231.783 50.31 243.909 52.374 253.713 56.502C263.689 60.63 271.257 66.908 276.417 75.336C281.577 83.592 284.157 94.256 284.157 107.328V194.016H251.391ZM206.241 197.628C196.093 197.628 187.149 195.822 179.409 192.21C171.841 188.598 165.907 183.438 161.607 176.73C157.307 169.85 155.157 161.68 155.157 152.22C155.157 141.9 157.823 133.472 163.155 126.936C168.487 120.228 175.969 115.326 185.601 112.23C195.233 108.962 206.327 107.328 218.883 107.328H249.069V130.29H218.625C211.401 130.29 205.811 132.096 201.855 135.708C198.071 139.148 196.179 143.878 196.179 149.898C196.179 155.574 198.071 160.218 201.855 163.83C205.811 167.27 211.401 168.99 218.625 168.99C223.269 168.99 227.397 168.216 231.009 166.668C234.793 164.948 237.889 162.11 240.297 158.154C242.705 154.198 244.081 148.694 244.425 141.642L254.229 151.962C253.369 161.766 250.961 170.022 247.005 176.73C243.221 183.438 237.889 188.598 231.009 192.21C224.301 195.822 216.045 197.628 206.241 197.628ZM373.102 195.822C358.826 195.822 347.302 194.102 338.53 190.662C329.758 187.05 323.308 181.116 319.18 172.86C315.224 164.432 313.246 153.08 313.246 138.804V14.448H351.688V140.352C351.688 147.06 353.408 152.22 356.848 155.832C360.46 159.272 365.534 160.992 372.07 160.992H392.968V195.822H373.102ZM291.832 82.818V52.632H392.968V82.818H291.832ZM495.301 194.016V152.22H488.335V106.812C488.335 99.588 486.615 94.17 483.175 90.558C479.735 86.946 474.231 85.14 466.663 85.14C462.879 85.14 457.891 85.226 451.699 85.398C445.507 85.57 439.143 85.828 432.607 86.172C426.071 86.516 420.137 86.86 414.805 87.204V52.374C418.761 52.03 423.405 51.686 428.737 51.342C434.069 50.998 439.573 50.74 445.249 50.568C450.925 50.396 456.257 50.31 461.245 50.31C475.693 50.31 487.819 52.374 497.623 56.502C507.599 60.63 515.167 66.908 520.327 75.336C525.487 83.592 528.067 94.256 528.067 107.328V194.016H495.301ZM450.151 197.628C440.003 197.628 431.059 195.822 423.319 192.21C415.751 188.598 409.817 183.438 405.517 176.73C401.217 169.85 399.067 161.68 399.067 152.22C399.067 141.9 401.733 133.472 407.065 126.936C412.397 120.228 419.879 115.326 429.511 112.23C439.143 108.962 450.237 107.328 462.793 107.328H492.979V130.29H462.535C455.311 130.29 449.721 132.096 445.765 135.708C441.981 139.148 440.089 143.878 440.089 149.898C440.089 155.574 441.981 160.218 445.765 163.83C449.721 167.27 455.311 168.99 462.535 168.99C467.179 168.99 471.307 168.216 474.919 166.668C478.703 164.948 481.799 162.11 484.207 158.154C486.615 154.198 487.991 148.694 488.335 141.642L498.139 151.962C497.279 161.766 494.871 170.022 490.915 176.73C487.131 183.438 481.799 188.598 474.919 192.21C468.211 195.822 459.955 197.628 450.151 197.628Z" fill="#0F172A"/>
<path d="M644.361 198.918C627.505 198.918 612.799 196.166 600.243 190.662C587.687 184.986 577.281 177.418 569.025 167.958C560.941 158.498 554.921 148.006 550.965 136.482C547.009 124.958 545.031 113.434 545.031 101.91V96.234C545.031 84.366 547.009 72.756 550.965 61.404C554.921 50.052 560.855 39.732 568.767 30.444C576.851 21.156 586.827 13.76 598.695 8.25598C610.735 2.75198 624.581 -1.75238e-05 640.233 -1.75238e-05C657.261 -1.75238e-05 672.311 3.18198 685.383 9.54598C698.455 15.738 708.947 24.424 716.859 35.604C724.771 46.612 729.329 59.426 730.533 74.046H688.221C687.189 67.166 684.437 61.146 679.965 55.986C675.665 50.826 670.075 46.784 663.195 43.86C656.487 40.936 648.833 39.474 640.233 39.474C631.977 39.474 624.581 40.936 618.045 43.86C611.681 46.784 606.177 50.912 601.533 56.244C597.061 61.576 593.621 67.94 591.213 75.336C588.977 82.56 587.859 90.558 587.859 99.33C587.859 108.446 589.063 116.788 591.471 124.356C594.051 131.752 597.749 138.202 602.565 143.706C607.381 149.038 613.315 153.166 620.367 156.09C627.591 159.014 635.589 160.476 644.361 160.476C656.057 160.476 666.205 158.068 674.805 153.252C683.405 148.436 689.597 142.072 693.381 134.16L688.221 163.056V118.164H727.179V158.412C719.095 171.484 707.915 181.546 693.639 188.598C679.535 195.478 663.109 198.918 644.361 198.918ZM638.943 126.42V95.976H742.659V126.42H638.943ZM826.253 198.918C813.869 198.918 802.861 197.026 793.229 193.242C783.597 189.286 775.427 183.954 768.719 177.246C762.183 170.538 757.195 162.884 753.755 154.284C750.315 145.512 748.595 136.31 748.595 126.678V120.744C748.595 110.94 750.315 101.652 753.755 92.88C757.367 83.936 762.527 76.11 769.235 69.402C776.115 62.694 784.371 57.448 794.003 53.664C803.635 49.708 814.385 47.73 826.253 47.73C838.465 47.73 849.301 49.708 858.761 53.664C868.393 57.448 876.563 62.694 883.271 69.402C889.979 76.11 895.139 83.936 898.751 92.88C902.363 101.652 904.169 110.94 904.169 120.744V126.678C904.169 136.31 902.449 145.512 899.009 154.284C895.569 162.884 890.495 170.538 883.787 177.246C877.251 183.954 869.167 189.286 859.535 193.242C849.903 197.026 838.809 198.918 826.253 198.918ZM826.253 164.088C834.337 164.088 841.045 162.368 846.377 158.928C851.709 155.488 855.751 150.672 858.503 144.48C861.427 138.288 862.889 131.408 862.889 123.84C862.889 115.756 861.427 108.704 858.503 102.684C855.579 96.492 851.365 91.59 845.861 87.978C840.529 84.366 833.993 82.56 826.253 82.56C818.685 82.56 812.149 84.366 806.645 87.978C801.141 91.59 796.927 96.492 794.003 102.684C791.251 108.704 789.875 115.756 789.875 123.84C789.875 131.408 791.251 138.288 794.003 144.48C796.755 150.672 800.883 155.488 806.387 158.928C811.891 162.368 818.513 164.088 826.253 164.088Z" fill="#14B8A6"/>
</svg>
